<?xml version="1.0" encoding="utf-8"?>
<!-- Generator: Adobe Illustrator 16.0.4, SVG Export Plug-In . SVG Version: 6.00 Build 0)  -->
<!DOCTYPE svg PUBLIC "-//W3C//DTD SVG 1.1//EN" "http://www.w3.org/Graphics/SVG/1.1/DTD/svg11.dtd">
<svg version="1.1" id="Layer_1" xmlns="http://www.w3.org/2000/svg" xmlns:xlink="http://www.w3.org/1999/xlink" x="0px" y="0px"
	 width="270px" height="270px" viewBox="0 0 270 270" enable-background="new 0 0 270 270" xml:space="preserve">
<g>
	<path id="hairs" fill="#EDAE61" d="M173.36,76.58c0,0-5.34,11.49,0,18.97c5.34,7.48,9.62,14.42,4.27,21.37
		c-5.34,6.95-3.74,13.89,1.6,18.16c5.34,4.27,7.48,11.75,2.67,18.7c-4.81,6.94-3.74,13.36,3.21,20.3s2.14,13.89-2.67,21.37
		c-4.81,7.48-2.14,14.96,4.27,19.77c6.41,4.81,2.67,18.16-2.14,20.84c-4.81,2.67,0.53,16.29,0.53,16.29h-82.81
		c0,0-12.82-5.48-9.08-15.09c3.74-9.62,2.67-19.3-1.6-23.04c-4.27-3.74-7.48-10.72-2.14-17.66c5.34-6.95,5.88-14.98,2.14-19.25
		c-3.74-4.27-9.62-11.76-3.74-21.91c5.88-10.15,7.48-17.1,3.21-24.04c-4.27-6.94-6.95-11.76-3.21-16.56
		c3.74-4.81,2.67-14.43-0.53-17.63c-3.21-3.21-3.74-5.34-0.53-10.69c3.21-5.34,0.53-13.89,0.53-13.89l5.36-16.95l61.17-2.63
		L173.36,76.58z"/>
	<polyline fill="#FFBDA3" points="39.17,292.83 27.26,194.62 58.47,202.24 58.05,311.12 	"/>
	<polygon fill="#FFBDA3" points="123.15,129.73 123.15,153.24 66.25,173.54 131.56,257.95 202.68,171.93 148.75,153.24 
		149.04,105.69 	"/>
	<polygon fill="#D49281" points="125.28,149.38 137.57,176.74 181.91,176.74 185.12,193.04 201.86,171.76 148.79,153.3 
		149.32,105.72 125.28,130.19 	"/>
	<polyline fill="#1A7C91" points="126,351.97 184.4,322.77 215.75,371.2 	"/>
	<polygon fill="#D49281" points="135.97,221.62 133.3,241.39 118.87,241.39 131.69,257.95 144.51,241.92 139.71,241.92 	"/>
	<polygon fill="#D49281" points="122.08,178.88 78.27,171.94 83.08,178.88 	"/>
	<polygon fill="#1A7C91" points="18.97,189.03 78.8,169.26 157.87,270.77 98.57,270.77 	"/>
	<polyline fill="#1A7C91" points="254.57,189.03 194.73,169.26 115.67,270.77 174.97,270.77 254.57,189.03 	"/>
	<g>
		<path fill="#815554" d="M142.86,175.83l10.31,5.64c0,0-13.71,15.03-1.16,31.04C152.01,212.51,129.72,207.62,142.86,175.83z"/>
		<path fill="#815554" d="M124.23,165.95l-10.86,4.49c0,0,11.99,16.43-2.23,30.98C111.14,201.42,133.83,198.98,124.23,165.95z"/>
		
			<line fill="none" stroke="#815554" stroke-width="2.1369" stroke-miterlimit="10" x1="122.78" y1="176.68" x2="112.46" y2="157.25"/>
		
			<line fill="none" stroke="#815554" stroke-width="2.1369" stroke-miterlimit="10" x1="160.34" y1="157.25" x2="145.94" y2="181.82"/>
	</g>
	<rect x="98.57" y="270.77" fill="#1A7C91" width="76.93" height="35.25"/>
	<polygon fill="#21445C" points="120.65,259.02 98.57,278.6 98.57,270.77 	"/>
	<polygon fill="#21445C" points="134.36,241.92 175.5,283.59 175.5,275.4 	"/>
	<polygon fill="#133346" points="134.9,271.48 81.9,220.91 130.99,274.33 	"/>
	<polygon fill="#21445C" points="175.5,305.95 98.57,305.95 137.04,274.47 	"/>
	<polygon fill="#133346" points="130.99,274.33 134.54,271.48 175.5,305.95 158.4,296.95 	"/>
	<polyline fill="#1A7C91" points="52.63,371.2 98.57,305.95 175.5,305.95 184.4,322.77 138.1,358.38 	"/>
	<polyline fill="#133346" points="148.06,371.2 184.4,322.77 138.1,371.2 	"/>
	<polyline fill="#D49281" points="195.8,423.56 244.95,328.47 236.4,322.05 190.46,423.56 	"/>
	<polygon fill="#21445C" points="194.73,169.26 182.98,184.58 190.06,229.45 175.5,270.77 254.57,189.03 	"/>
	<polyline fill="#21445C" points="215.75,371.2 175.5,305.95 195.8,371.92 	"/>
	<g id="head_3_">
		<polygon fill="#FFBDA3" points="93.23,54.94 93.23,106.23 113.53,131.87 129.56,131.87 148.79,109.43 148.79,52.8 121.54,43.72 		
			"/>
		<path fill="#D49281" d="M129.56,131.87l23.51-22.44v-60.9h-8.55l1.91,33.98c0.84,15.03,2.62,23.19-11.94,42.27L129.56,131.87z"/>
		<polygon fill="#D49281" points="112.46,103.82 125.28,103.82 118.87,107.56 		"/>
		<polygon fill="#DE7A7A" points="108.11,115.43 110.16,116.98 117.4,120.92 121.14,120.92 128.71,117.71 131.36,115.84 
			126.35,116.91 109.89,115.77 		"/>
		<polygon fill="#876767" points="122.97,75.85 123.25,81.53 142.46,80.58 147.54,82.47 141.92,77.04 		"/>
		<polygon fill="#876767" points="112.81,75.42 112.95,81.11 97.79,80.51 95.13,81.73 96.28,77.76 		"/>
		<polygon fill="#FFFFFF" stroke="#876767" stroke-width="1.137" stroke-miterlimit="10" points="112.73,91.27 109.78,85.92 
			101.78,85.92 98.57,89.13 104.98,92.87 		"/>
		<polygon fill="#FFFFFF" stroke="#876767" stroke-width="1.137" stroke-miterlimit="10" points="125.1,91.27 126.99,85.92 
			136.06,85.92 139.26,89.13 132.85,92.87 		"/>
		<polygon fill="#FFE3A3" points="110.34,53.87 95.89,64.48 84.68,59.21 100.22,33.84 		"/>
		<polygon fill="#FFE3A3" points="115.31,44.97 158.14,33.84 176.57,61.08 147.72,65.89 		"/>
		<polygon fill="#FFC178" points="95.89,64.48 84.68,59.21 84.68,69.36 87.35,72.57 		"/>
		<path fill="#FFE3A3" d="M93.23,67c0,0,6.97,14.48,3.76,22.49c-3.21,8.01-4.81,10.68-0.53,16.03c4.27,5.34,8.01,10.15,3.21,16.03
			c-4.81,5.88,0,14.96,4.27,19.77c4.27,4.81,2.67,9.08-2.67,14.42c-5.34,5.34-0.53,14.42,3.74,18.7c4.27,4.27,3.74,11.75-2.67,16.56
			c0,0,8.55-6.41,1.6-12.29c-6.94-5.88-12.82-9.08-9.08-19.23c3.74-10.15,9.08-10.68,5.88-14.42c-3.21-3.74-11.75-14.96-8.01-21.9
			c3.74-6.94,6.95-8.01,2.67-11.75c-4.27-3.74-8.01-12.29-4.81-17.63s4.79-11.62-2.16-23.37L93.23,67z"/>
		<polygon fill="#CB5152" points="131.89,115.74 129.44,115.93 122.95,111.57 118.87,112.5 115.76,111.57 109.84,115.46 
			108.11,115.43 111.71,116.67 123.86,116.91 129.17,116.91 		"/>
		<polygon fill="#FCF2D2" points="110.34,53.87 100.22,33.57 158.4,33.57 129.4,53.87 		"/>
		<path fill="#D49281" d="M151.64,88.06c0,0,5.34-7.48,8.55-5.34c3.21,2.14,0.36,15.67-8.55,21.37V88.06z"/>
		<path fill="#FFE3A3" d="M151.79,67.58c0,0-3.17,16.38,1.1,21.72c4.27,5.34,2.67,13.36-2.14,16.03c-4.81,2.67-4.81,13.89,1.6,20.83
			c6.41,6.94,5.34,16.56-0.53,22.97c-5.88,6.41-4.81,13.89,2.14,19.23c6.94,5.34-3.74,22.44,2.67,28.85c0,0-0.53-11.22,3.21-18.7
			c3.74-7.48,0-9.08-4.27-14.42c-4.27-5.34-2.14-14.42,2.67-20.3c4.81-5.88,4.27-12.29-1.07-19.23c-5.34-6.95-6.95-11.75-1.07-19.77
			c5.88-8.01,6.94-16.03,2.67-19.23c-4.27-3.21-0.53-19.23-0.53-19.23L151.79,67.58z"/>
		<polygon fill="#FFC178" points="147.72,65.89 176.57,61.08 176.57,73.37 173.36,76.58 		"/>
	</g>
	<polygon fill="#D49281" points="244.95,198.48 244.95,327.4 221.44,315.65 216.46,229.11 	"/>
	<polyline fill="#FFBDA3" points="195.8,422.5 244.95,327.4 221.44,315.65 186.18,421.43 	"/>
	<circle fill="#6BB8B8" stroke="#876767" stroke-width="1.137" stroke-miterlimit="10" cx="104" cy="88.48" r="2.46"/>
	<circle fill="#6BB8B8" stroke="#876767" stroke-width="1.137" stroke-miterlimit="10" cx="129.31" cy="88.48" r="2.46"/>
</g>
</svg>
